<?xml version="1.0" encoding="UTF-8"?>
<svg id="Layer_2" data-name="Layer 2" xmlns="http://www.w3.org/2000/svg" viewBox="0 0 142.19 23.51">
  <g id="Layer_1-2" data-name="Layer 1">
    <g>
      <path fill="#005d99" d="M11.42,7.3c-.22.5-.58.95-1.14,1.28-.56.33-1.25.59-2.14.7v.17c1.03.08,1.78.22,2.26.47.47.25.84.72,1.03,1.39.19.67.31,1.67.31,3.06v.75c0,.7-.08,1.28-.22,1.84-.14.56-.39,1.03-.81,1.48-.39.42-1,.78-1.78,1.06-.81.25-1.81.39-3.06.39H0V0h5.76C7.38,0,8.61.14,9.47.42c.86.28,1.47.72,1.78,1.31.34.56.5,1.36.5,2.34v1.34c0,.73-.11,1.37-.34,1.9M6.6,3.12c-.31-.25-.67-.36-1.03-.36h-.92v5.29h.78c.47,0,.86-.11,1.17-.39.31-.25.47-.58.47-1v-2.62c0-.36-.17-.67-.47-.92M6.71,11.36c-.25-.28-.53-.42-.89-.42h-1.17v6.04h.97c.39,0,.72-.14,1-.45.31-.28.44-.64.44-1.03l.03-3.23c0-.36-.14-.67-.39-.92"/>
      <path fill="#005d99" d="M19.02,18.13c-.11.61-.44,1.14-1.03,1.53-.61.39-1.28.58-2.03.58-.67,0-1.31-.19-1.87-.61-.58-.42-.95-.89-1.03-1.45-.11-.59-.17-1.48-.19-2.62,0-.92.08-1.61.22-2.11.14-.53.42-1,.81-1.42.28-.25.89-.61,1.81-1.11.89-.5,1.56-.86,1.92-1.09.39-.22.72-.47,1.03-.75.17-.17.31-.31.36-.45.08-.14.11-.42.11-.89,0-.81-.31-1.22-.89-1.22-.28,0-.53.14-.7.42-.19.28-.28.58-.28.92v1.76h-4.4v-2.01c0-1.23.44-2.17,1.36-2.93.89-.72,2.31-1.09,4.21-1.09.89,0,1.64.11,2.28.31s1.17.5,1.59.86c.42.36.7.78.89,1.28.19.47.31,1,.31,1.59v11.06c0,.14.03.39.08.7.03.31.06.47.06.5h-4.37l-.11-1.76h-.14ZM17.74,13.04c-.31.28-.47.61-.47,1v1.67c0,.25.08.47.19.7.14.22.36.34.7.34s.58-.08.72-.31c.14-.2.22-.39.22-.53v-4.04c-.81.67-1.28,1.06-1.36,1.17"/>
      <rect fill="#005d99" x="24.65" width="4.4" height="19.89"/>
      <path fill="#005d99" d="M36.65,6.88h-1.31v13.01h-4.4V6.88h-.92v-2.9h.89c0-.95.11-1.7.34-2.28.25-.58.58-1.03,1.03-1.28C32.75.14,33.31,0,33.98,0h2.7v2.76c-.89,0-1.34.22-1.34.64v.59h1.31v2.9Z"/>
      <path fill="#005d99" d="M47.99,15.21c0,1.03-.17,1.95-.5,2.67-.36.75-.92,1.34-1.7,1.75-.78.42-1.84.61-3.12.61s-2.31-.19-3.12-.58c-.81-.42-1.37-.97-1.73-1.73-.36-.75-.53-1.64-.53-2.73v-6.54c0-1.06.17-1.98.53-2.73.34-.75.89-1.34,1.7-1.73.78-.42,1.81-.61,3.12-.61,1.87,0,3.23.42,4.07,1.25.86.84,1.28,2.12,1.28,3.82v6.54ZM43.37,6.74c-.17-.22-.42-.33-.72-.33s-.53.11-.7.31c-.17.22-.25.5-.25.89v8.58c0,.34.08.59.25.81.14.22.39.34.67.34.64,0,.98-.36.98-1.14V7.6c0-.36-.08-.67-.22-.86"/>
      <path fill="#005d99" d="M59.74,19.89h-4.29v-1.84c-.31.58-.75,1.11-1.39,1.56-.61.42-1.34.64-2.14.64-.56,0-1.06-.14-1.48-.39-.42-.25-.75-.64-1-1.11-.25-.47-.36-1.06-.36-1.7V3.98h4.4v11.67c0,.25.08.47.22.67.14.22.36.33.67.33.28,0,.53-.08.7-.25.19-.17.28-.36.28-.56V3.98h4.4v15.9Z"/>
      <path fill="#005d99" d="M71.5,12.53h-4.4v-4.35c0-.25-.08-.47-.25-.67-.17-.17-.36-.25-.61-.25-.19,0-.42.08-.61.25-.22.17-.33.36-.33.64v11.73h-4.4V4.04h4.29v1.92c.75-1.53,1.89-2.31,3.45-2.31.83,0,1.53.28,2.06.86.53.58.81,1.34.81,2.23v5.79Z"/>
      <path fill="#005d99" d="M90.55,7.3c-.23.5-.59.95-1.14,1.28-.56.33-1.25.59-2.15.7v.17c1.03.08,1.78.22,2.26.47.47.25.84.72,1.03,1.39.19.67.3,1.67.3,3.06v.75c0,.7-.08,1.28-.22,1.84-.14.56-.39,1.03-.81,1.48-.39.42-1,.78-1.78,1.06-.81.25-1.81.39-3.06.39h-5.85V0h5.77c1.62,0,2.84.14,3.71.42.86.28,1.48.72,1.78,1.31.33.56.5,1.36.5,2.34v1.34c0,.73-.11,1.37-.33,1.9M85.73,3.12c-.31-.25-.67-.36-1.03-.36h-.92v5.29h.78c.47,0,.86-.11,1.17-.39.31-.25.47-.58.47-1v-2.62c0-.36-.17-.67-.47-.92M85.84,11.36c-.25-.28-.53-.42-.89-.42h-1.17v6.04h.98c.39,0,.72-.14,1-.45.3-.28.44-.64.44-1.03l.03-3.23c0-.36-.14-.67-.39-.92"/>
      <path fill="#005d99" d="M102.61,12.37h-6.27v3.98c0,.25.08.45.28.67.17.2.39.31.64.31.28,0,.53-.08.7-.28.17-.2.25-.45.25-.72v-2.62h4.4v2.23c0,.56-.11,1.09-.3,1.62-.2.53-.53,1-.95,1.42-.45.39-1,.7-1.67.95-.7.22-1.48.33-2.42.33-3.54,0-5.32-1.67-5.32-4.98v-6.71c0-1.03.17-1.92.53-2.65.33-.75.89-1.31,1.67-1.7.78-.42,1.78-.61,3.03-.61,1.87,0,3.26.39,4.12,1.17.86.78,1.31,1.78,1.31,3.04v4.57ZM98.21,9.67v-2.28c0-.22-.08-.45-.25-.67-.14-.19-.39-.31-.67-.31-.64,0-.95.45-.95,1.36v1.89h1.87Z"/>
      <path fill="#005d99" d="M109.85,18.13c-.11.61-.45,1.14-1.03,1.53-.61.39-1.28.58-2.03.58-.67,0-1.31-.19-1.87-.61-.58-.42-.95-.89-1.03-1.45-.11-.59-.17-1.48-.19-2.62,0-.92.08-1.61.22-2.11.14-.53.42-1,.81-1.42.28-.25.89-.61,1.81-1.11.89-.5,1.56-.86,1.92-1.09.39-.22.73-.47,1.03-.75.17-.17.31-.31.36-.45.08-.14.11-.42.11-.89,0-.81-.31-1.22-.89-1.22-.28,0-.53.14-.7.42-.2.28-.28.58-.28.92v1.76h-4.4v-2.01c0-1.23.45-2.17,1.37-2.93.89-.72,2.31-1.09,4.21-1.09.89,0,1.64.11,2.28.31.64.2,1.17.5,1.59.86.42.36.7.78.89,1.28.19.47.31,1,.31,1.59v11.06c0,.14.03.39.08.7.03.31.06.47.06.5h-4.37l-.11-1.76h-.14ZM108.57,13.04c-.31.28-.47.61-.47,1v1.67c0,.25.08.47.2.7.14.22.36.34.7.34s.58-.08.72-.31c.14-.2.22-.39.22-.53v-4.04c-.81.67-1.28,1.06-1.36,1.17"/>
      <path fill="#005d99" d="M127.48,19.89c-.89,0-1.62-.28-2.17-.84-.56-.53-.84-1.28-.84-2.2V6.88h-3.48v9.53c0,.48.36.73,1.09.73h.86v2.76h-3.34c-.89,0-1.62-.28-2.17-.84-.56-.56-.84-1.28-.84-2.2V6.88h-1.48v-2.9h1.48V1.06h4.4v2.92h3.48V1.06h4.4v2.92h1.95v2.9h-1.95v9.53c0,.48.36.73,1.12.73h.83v2.76h-3.34Z"/>
      <path fill="#005d99" d="M135.48,4.18c.03.08.03.19.05.33.03.17.05.31.08.47.03.14.05.33.08.56.11.61.2,1.17.28,1.67.08.53.14,1,.2,1.39.08.42.11.84.16,1.25.31,2.09.5,3.9.56,5.49h.11c.03-1.87.25-3.73.53-5.63.08-.45.11-.92.17-1.42.08-.5.14-1,.22-1.51.11-.5.19-1,.28-1.48.11-.47.2-.92.25-1.34h3.73c-.58,2.62-1.5,6.96-2.73,13.01-.36,1.76-.67,3.06-.89,3.87-.22.84-.53,1.45-.89,1.84-.2.22-.47.39-.84.56-.36.17-.73.25-1.11.25h-4.29v-2.81h2.51c.11,0,.22-.06.36-.17.14-.08.19-.25.19-.45,0-.31-.36-1.92-1.03-4.9-.42-1.78-1.2-5.52-2.42-11.2h4.4c0,.06.03.11.03.2"/>
    </g>
  </g>
</svg>
